<?xml version="1.0" encoding="UTF-8" standalone="no"?>
<svg xmlns="http://www.w3.org/2000/svg" width="100" height="85">
  <path
     d="M 69.756244,2.1147502 C 63.343723,0.39419017 56.85429,2.3632102 52.374304,6.6407702 50.033695,3.8235702 46.86438,1.6492602 43.062925,0.62936017 33.27948,-1.9955898 23.200789,3.8311602 20.579303,13.62784 20.386669,14.3477 20.335956,15.0716 20.232649,15.79159 11.422173,14.8745 2.9919421,20.39753 0.62677904,29.23645 -1.7167653,37.99449 2.7056277,46.94987 10.654175,50.63197 10.222107,51.57017 9.8192528,52.53671 9.5432558,53.568 6.9218154,63.36469 12.746535,73.43532 22.530006,76.06028 c 4.791966,1.28591 9.634645,0.53082 13.654646,-1.71061 2.215529,4.74614 6.346279,8.56605 11.791634,10.027 7.769359,2.08464 15.653289,-1.2176 19.909648,-7.54696 1.72414,1.22223 3.640599,2.23324 5.799388,2.81257 9.783446,2.62496 19.840462,-3.20772 22.461948,-13.00441 1.318231,-4.92626 0.502553,-9.9116 -1.877057,-13.99739 2.355035,-2.24866 4.198447,-5.09705 5.101657,-8.47247 2.62148,-9.7968 -3.203258,-19.86743 -12.986701,-22.49239 -1.029892,-0.27621 -2.061521,-0.4318 -3.088698,-0.5262 C 83.905267,12.54638 78.383537,4.4295802 69.756244,2.1147502 z"
     fill="none" />
</svg>
